<?xml version="1.0" encoding="utf-8"?>
<!-- Generator: Adobe Illustrator 16.0.0, SVG Export Plug-In . SVG Version: 6.00 Build 0)  -->
<!DOCTYPE svg PUBLIC "-//W3C//DTD SVG 1.1//EN" "http://www.w3.org/Graphics/SVG/1.1/DTD/svg11.dtd">
<svg version="1.1" id="Layer_1" xmlns="http://www.w3.org/2000/svg" xmlns:xlink="http://www.w3.org/1999/xlink" x="0px" y="0px"
	 width="213.662px" height="83.986px" viewBox="0 0 213.662 83.986" enable-background="new 0 0 213.662 83.986"
	 xml:space="preserve">
<g>
	<path fill="#413F3E" d="M9.908,78.078L9.85,78.127c0.023-0.021,0.049-0.031,0.072-0.049H9.908z"/>
	<path fill="#413F3E" d="M186.324,29.63c-16.446,0-27.338,10.454-27.338,27.233c0,8.105,2.52,14.667,6.951,19.311
		c2.699,2.205,4.482,3.658,4.482,3.658l1.916,1.028c3.973,2.02,8.674,3.126,13.988,3.126c16.773,0,27.338-10.244,27.338-27.123
		C213.662,39.104,203.098,29.63,186.324,29.63z M198.786,62.558c-3.911,8.389-11.347,19.944-22.104,14.926
		c-10.759-5.015-6.686-18.134-2.774-26.526c3.822-8.196,11.298-19.846,22.057-14.832C206.729,41.141,202.698,54.162,198.786,62.558z
		"/>
	<path fill="#413F3E" d="M28.875,29.63c-5.066,0-9.593,1.005-13.448,2.866l-0.008-0.002c-0.012,0.006-0.022,0.017-0.034,0.023
		c-0.015,0.008-0.027,0.014-0.039,0.021c-0.088,0.034-0.183,0.056-0.283,0.056c-0.419,0-0.757-0.337-0.762-0.757l-0.016-0.006
		l0.596-30.313c0-0.84-0.684-1.519-1.523-1.519H1.521C0.68,0,0,0.679,0,1.519c0,0,0.268,2.813,0.44,5.987
		c0.176,3.171,0.564,29.127,0.599,31.538c0.035,2.415,0.012,17.75,0.012,20.921c0,3.167-0.572,20.27-0.572,21.134
		c0,0,0.003,0.011,0.003,0.015c0,0.01-0.003,0.021-0.003,0.031c0,0.839,0.68,1.519,1.52,1.519h2.209l0.021-0.007
		c0.345-0.021,0.654-0.154,0.901-0.364l0.006-0.004l0.041-0.035c0.016-0.015,0.031-0.027,0.048-0.046l4.589-4.049l0.037-0.031
		l0.059-0.049h0.014c0.125-0.091,0.272-0.158,0.439-0.158c0.206,0,0.391,0.086,0.529,0.222c0.004,0,0.01,0.003,0.013,0.007
		c0,0,0.001,0.008,0.005,0.01h0.005c1.218,1.012,1.747,1.506,2.06,1.674c0.357,0.191,1.916,1.028,1.916,1.028
		c3.971,2.02,8.672,3.126,13.986,3.126c16.773,0,27.338-10.244,27.338-27.123C56.213,39.104,45.648,29.63,28.875,29.63z
		 M41.337,62.558c-3.911,8.389-11.346,19.944-22.103,14.926c-10.76-5.015-6.685-18.134-2.775-26.526
		c3.825-8.196,11.299-19.846,22.058-14.832C49.281,41.141,45.249,54.162,41.337,62.558z"/>
	<path fill="#413F3E" d="M154.798,81.357c-0.148-0.121-2.37-2.135-7.659-9.039c-1.081-1.41-6.061-8.451-7.254-10.075l-8.449-11.692
		c7.287-6.488,22.406-19.671,23.354-20.57c0.008-0.008,0.017-0.018,0.026-0.025c0.005-0.006,0.02-0.017,0.02-0.017
		c0.505-0.546,0.167-1.028-0.258-1.2c-0.013-0.004-0.023-0.007-0.033-0.012c-0.086-0.034-0.178-0.055-0.277-0.055l-10.111-0.031
		h-0.154l-0.789-0.004h-0.005l-0.946-0.004c-0.27,0-0.494,0.15-0.631,0.361L141.623,29l-0.842,1.189h0.003
		c-0.056,0.078-0.11,0.148-0.169,0.232c-3.813,5.326-15.363,16.912-19.334,20.353c-0.113,0.099-0.221,0.196-0.334,0.29
		c-0.075,0.067-0.146,0.127-0.215,0.189c0,0-0.008-0.003-0.011-0.006c-0.14,0.156-0.337,0.262-0.564,0.262
		c-0.42,0-0.759-0.344-0.759-0.763c0-0.024,0.01-0.042,0.015-0.067l-0.013-0.006l0.973-49.155c0-0.84-0.682-1.519-1.521-1.519
		h-11.834c-0.842,0-1.523,0.679-1.523,1.519c0,0,0.267,2.813,0.443,5.987c0.173,3.171,0.562,29.127,0.597,31.538
		c0.035,2.415,0.011,17.75,0.011,20.921c0,3.167-0.572,20.27-0.572,21.134c0,0,0.001,0.011,0.001,0.015
		c0,0.01-0.003,0.021-0.003,0.031c0,0.839,0.682,1.519,1.521,1.519h11.359c0.84,0,1.521-0.68,1.521-1.519
		c0-0.109-0.012-0.215-0.033-0.314c-0.123-1.166-0.557-5.352-0.649-7.291c-0.056-1.166-0.14-6.54-0.208-11.506l0.011-0.004
		c-0.006-0.059-0.018-0.115-0.018-0.175c0-0.399,0.157-0.763,0.412-1.032l-0.017-0.004l0.789-0.738l-0.002,0.004
		c0.275-0.262,0.643-0.424,1.049-0.424c0.527,0,0.992,0.27,1.264,0.676c0.051,0.073,0.094,0.153,0.131,0.234
		c0.034,0.021,0.062,0.042,0.081,0.066c0.316,0.455,7.169,10.271,7.169,10.271c0.888,1.329,5.494,9.06,5.569,9.162
		c0.034,0.059,0.069,0.111,0.101,0.164c0.021,0.034,0.038,0.066,0.061,0.098h-0.001l1.104,1.939l0.023,0.013
		c0.108,0.183,0.286,0.312,0.503,0.351l0.025,0.021h0.068c0.016,0,0.029,0.007,0.045,0.007c0,0,0.03-0.007,0.044-0.007l0.646,0.003
		c0.02,0,0.039,0.004,0.059,0.004h0.9h0.042l14.66-0.004c0.007,0,0.008-0.003,0.008-0.003c0.026,0,0.042,0.007,0.06,0.007
		c0.422,0,0.762-0.339,0.762-0.76c0-0.213-0.089-0.405-0.233-0.546H154.798z"/>
	<path fill="#413F3E" d="M93.645,65.896c-0.143,0-0.27,0.053-0.379,0.123c-0.002-0.004-0.002-0.015-0.002-0.015l-0.228,0.165
		c0,0-6.032,6.715-8.157,7.598c-0.672,0.213-1.417,0.195-2.234-0.187c-1.184-0.552-1.688-1.472-1.805-2.522
		c-0.007-0.309-0.01-0.616-0.01-0.917c-0.002-0.073-0.002-0.147-0.002-0.222c0-0.065,0.002-0.121,0.002-0.185
		c0-0.007-0.002-0.021-0.002-0.028c-0.041-0.301-0.079-5.883-0.115-8.023c-0.062-3.781-0.111-8.703-0.111-8.703l0.203-10.339
		l0.805-41.123c0-0.84-0.682-1.519-1.521-1.519H68.252C67.41,0,66.73,0.679,66.73,1.519c0,0,0.268,2.817,0.441,5.987
		c0.174,3.171,0.564,29.127,0.598,31.542c0.023,1.62-0.093,13.358-0.204,21.925l0,0c-0.021,1.659-0.04,3.191-0.062,4.514
		c-0.004,0.39-0.01,0.76-0.016,1.106c-0.003,0.176-0.004,0.343-0.008,0.504c-0.033,0.868-0.17,4.519-0.082,5.341
		c0.102,0.934,0.127,1.42,0.127,1.42l0.006-0.006c0.164,2.394,0.896,4.416,2.082,6.016c0.234,0.314,0.476,0.619,0.744,0.895
		c1.114,0.914,1.85,1.513,1.85,1.513l0.791,0.424c1.53,0.776,3.331,1.222,5.352,1.273c0.05,0.004,0.099,0.004,0.149,0.007
		c0.038,0,0.075,0.004,0.114,0.004c0.023,0,0.047-0.007,0.07-0.007c1.899,0.017,3.683-0.638,5.308-1.516
		c2.49-1.274,7.768-6.51,8.912-7.653c0.401-0.398,0.724-0.715,0.99-0.97c0.091-0.095,0.181-0.188,0.268-0.286
		c0.005-0.005,0.007-0.012,0.01-0.012c0.13-0.136,0.211-0.314,0.211-0.514v-6.391C94.382,66.229,94.053,65.896,93.645,65.896z"/>
</g>
</svg>
